<?xml version="1.0" encoding="utf-8"?>
<!-- Generator: Adobe Illustrator 18.1.1, SVG Export Plug-In . SVG Version: 6.00 Build 0)  -->
<!DOCTYPE svg PUBLIC "-//W3C//DTD SVG 1.1//EN" "http://www.w3.org/Graphics/SVG/1.1/DTD/svg11.dtd">
<svg version="1.1" id="Layer_1" xmlns="http://www.w3.org/2000/svg" xmlns:xlink="http://www.w3.org/1999/xlink" x="0px" y="0px"
	 viewBox="0 0 118 109" enable-background="new 0 0 118 109" xml:space="preserve">
<g>
	<g>
		<path fill="#FFFFFF" d="M1,46.1c1-0.2,0.5-0.3,0.6-0.5c0.8-3.3,4.5-4.7,7.5-3c1.3,0.7,1.8,2,1.9,3.4c0.1,1.8,0.1,3.7,0.1,5.5
			c0,0.9-0.6,0.8-1.2,0.8c-0.6,0-1.2,0.1-1.2-0.8c0-1.5,0.1-3,0-4.5c-0.1-1.8-1.1-2.6-2.5-2.2c-0.8,0.2-1.4,0.7-1.4,1.5
			c-0.1,2.1-0.1,4.2,0,6.2c0,0.5,0.4,1.1,0.8,1.6C6.7,55.4,8,56.7,9.3,58c1.2,1.2,1.9,2.7,1.9,4.4c0,2,0.1,4.1,0,6.1
			c-0.1,3.3-2.3,4.3-5.2,4.1c-2.4-0.2-3.7-1.1-4.3-3.5c0-0.2,0.4-0.3-0.6-0.5c0-2.4,0-4.8,0-7.2c1,0,1.5,0,2,0
			c0.8-0.1,1.2,0.3,1.2,1c-0.1,0.9,0.1,1.8,0.1,2.8c0,1.1,0,2.3,0.2,3.4c0.2,1.1,1,1.5,2.1,1.4c1.1-0.1,1.7-0.7,1.8-1.8
			c0.1-0.7,0.1-1.4,0-2.1c-0.1-5.4,0.3-4.3-4-8.6C3.1,56.1,2,54.8,1,52.6C1,50.5,1,48.3,1,46.1z"/>
		<path fill="#FFFFFF" d="M99.1,19.7c-3.3,2.3-6.7,2.7-9.8,0c-3-2.6-3.1-5.8-1.3-9.4c-1.9-1-3.8-2.1-5.8-3c-8.3-3.9-17-5.7-26.1-4.9
			c-20.7,1.8-35.6,12-44.9,30.3c-0.2,0.5-0.3,1.5-1.1,1.2c-0.9-0.4-0.2-1.1,0.1-1.6c8-16.3,21-26.6,39-30.1
			c13.7-2.7,26.6-0.2,38.6,6.9c0.6,0.4,1,0.4,1.6-0.1c2.7-2.2,6.7-2.2,9.3,0c2.8,2.3,3.5,6.1,1.6,9.1c-0.4,0.7-0.3,1.1,0.2,1.7
			c3.4,3.8,6.1,8,8.2,12.6c0.1,0.3,0.3,0.6,0.3,0.9c0,0.2-0.1,0.6-0.3,0.7c-0.2,0.1-0.5-0.1-0.7-0.2c-0.2-0.2-0.3-0.6-0.5-0.9
			c-2.1-4.4-4.7-8.4-7.9-12.1C99.6,20.2,99.4,20,99.1,19.7z M89.3,11.2c-1.8,2.1-1.3,5.7,1,7.6c2.3,1.9,6,1.8,7.8-0.3
			C95.4,15.8,92.5,13.3,89.3,11.2z M99,17.5c1.9-2,1.3-5.8-1.2-7.7c-2.4-1.9-6.2-1.6-7.6,0.4C93.1,12.6,96,15,99,17.5z"/>
		<path fill="#FFFFFF" d="M36.5,72.2c-0.7,0-1.4,0.1-2,0c-0.3-0.1-0.6-0.5-0.6-0.9c-0.2-1.1-0.3-2.2-0.4-3.3
			c-0.1-0.6-0.3-0.8-0.9-0.8c-1.1,0-2.1,0-3.2,0c-0.5,0-0.8,0.2-0.9,0.8c-0.1,0.9-0.3,1.9-0.4,2.8c-0.2,1.4-0.1,1.4-1.6,1.4
			c-0.3,0-0.6,0-1.1-0.1c0.2-1.6,0.4-3.1,0.6-4.6c0.8-5.8,1.6-11.6,2.4-17.4c0.3-2.4,0.7-4.8,1.1-7.2c0-0.3,0.5-0.5,0.7-0.7
			c0,0,0.1,0,0.1,0c2.3-0.2,2.3-0.2,2.6,2.1c1.2,9.1,2.4,18.2,3.6,27.3C36.6,71.9,36.5,72,36.5,72.2z M33,65c-0.6-5-1.2-10.1-1.8-15
			c-0.1,0-0.2,0.1-0.3,0.1C30.2,55,29.5,60,28.9,65C30.3,65,31.5,65,33,65z"/>
		<path fill="#FFFFFF" d="M68.1,72.2c0.2-1.8,0.5-3.5,0.7-5.2c0.8-5.8,1.6-11.6,2.4-17.4c0.3-2.1,0.6-4.2,0.9-6.4
			c0.1-0.7,0.4-1,1.2-1c2.7,0.1,2-0.2,2.4,2.1c0.9,6.1,1.6,12.3,2.5,18.4c0.4,2.7,0.7,5.5,1.1,8.2c0.1,0.4,0.4,1.2-0.6,1.2
			c-1.6,0-2,0.1-2-0.9c0-1-0.3-2.1-0.4-3.1c-0.1-0.7-0.4-1-1.1-1c-0.9,0-1.8,0.1-2.7,0c-0.9-0.1-1.1,0.4-1.2,1.1
			c-0.1,1-0.3,2-0.4,2.9c0,0.9-0.4,1.1-1.2,1C69.1,72.2,68.6,72.2,68.1,72.2z M73.8,50c-0.1,0-0.2,0.1-0.3,0.1
			C72.9,55,72.3,60,71.6,65c1.4,0,2.7,0,4,0C75,60,74.4,54.9,73.8,50z"/>
		<path fill="#FFFFFF" d="M114.4,64.7c0.7-2.5-0.8-4.5-2.9-6.5c-4.3-4.2-3.7-3.5-3.8-8.9c0-1.4,0-2.7,0.2-4.1c0.2-1.7,1.4-2.7,3.1-3
			c0.9-0.1,1.9-0.1,2.8,0c1.8,0.3,2.8,1.3,2.9,3.1c0.2,2.1,0.2,4.2,0.2,6.3c0,0.9-0.7,0.7-1.2,0.7c-0.6,0-1.3,0.1-1.3-0.8
			c0-1.1,0-2.1,0-3.2c0-0.6,0-1.3-0.1-1.9c-0.2-1.2-0.8-1.7-1.9-1.7c-1.1,0-1.9,0.5-2,1.7c-0.1,2.1-0.1,4.1,0.1,6.2
			c0,0.5,0.5,1.1,0.9,1.6c1.3,1.4,2.6,2.8,4,4.2c1.1,1.1,1.6,2.4,1.6,4c0,2,0,4.1,0,6.1c-0.1,2.5-1.2,3.8-3.7,4.1
			c-3.6,0.5-5.5-1.2-5.6-4.5c0-1.9,0-3.8,0-5.6c0-1,0.5-1,1.2-1c0.8,0,1.4,0,1.4,1c0,1.5,0,2.9,0,4.4c0,0.5,0,1,0.1,1.4
			c0.2,1.2,1,1.9,2.1,1.8c1.2-0.1,1.8-0.8,1.9-2C114.4,67.1,114.4,66.1,114.4,64.7z"/>
		<path fill="#FFFFFF" d="M39,57.3c0-3.3,0-6.5,0-9.8c0-0.7,0.1-1.5,0.2-2.2c0.4-2.3,2.1-3.4,5.1-3.3c2.1,0.1,3.5,1.4,3.7,3.5
			c0.2,1.9,0.1,3.9,0.2,5.8c0,1-0.7,0.8-1.3,0.9c-0.7,0-1.1-0.1-1.1-0.9c0-1.5,0-2.9,0-4.4c-0.1-1.6-0.7-2.3-2-2.3
			c-1.1,0-1.8,0.5-2,1.6c-0.1,0.5-0.2,1.1-0.2,1.6c0,6.3,0,12.7,0,19c0,0.5,0,1,0.1,1.5c0.2,1.1,0.9,1.7,2,1.7
			c1.1,0,1.8-0.5,1.9-1.6c0.1-1.9,0.1-3.7,0.1-5.6c0-1.3,0.6-1.7,1.9-1.3c0.2,0.1,0.5,0.5,0.5,0.8c0,2.3,0,4.6-0.2,6.9
			c-0.1,1.9-1.2,3-3,3.3c-3.9,0.6-5.9-1.2-6-4.8C39,64.2,39,60.8,39,57.3z"/>
		<path fill="#FFFFFF" d="M14.7,57.2c0-4.6,0-9.1,0-13.7c0-1,0.4-1.3,1.3-1.2c1.6,0.1,3.1,0,4.7,0.2c2.1,0.2,3.6,1.4,3.7,3.5
			c0.2,2.8,0.2,5.6,0,8.5c-0.1,2.1-1.7,3.3-3.8,3.5c-0.2,0-0.4,0-0.6,0c-2.6,0.1-2.6,0.1-2.6,2.6c0,3.5,0,7,0,10.5
			c0,1.1-0.5,1.2-1.4,1.2c-0.8,0-1.3-0.1-1.3-1.1C14.7,66.5,14.7,61.8,14.7,57.2z M17.4,55.4c0.7,0,1.4,0,2.1,0
			c1.5-0.1,2.2-0.6,2.3-2.1c0.1-1.6,0.1-3.2,0.1-4.8c0-3-0.7-3.6-3.7-3.5c-0.7,0-0.9,0.3-0.9,0.9c0,2.8,0,5.7,0,8.5
			C17.3,54.7,17.3,55,17.4,55.4z"/>
		<path fill="#FFFFFF" d="M95.2,57.3c0-4.6,0-9.2,0-13.8c0-1,0.3-1.3,1.3-1.2c1.5,0.1,3,0,4.6,0.2c2.2,0.2,3.7,1.5,3.8,3.6
			c0.1,2.7,0.1,5.4,0,8.2c-0.1,2.1-1.6,3.4-3.8,3.6c-0.3,0-0.7,0-1,0c-2.2,0-2.2,0-2.2,2.2c0,3.7,0,7.4,0,11c0,1.1-0.6,1.1-1.3,1.1
			c-0.8,0-1.3,0-1.3-1.1C95.3,66.5,95.2,61.9,95.2,57.3z M97,55.4c1,0,2,0,2.7,0c1.4-0.1,2.4-0.7,2.4-2.2c0.1-1.6,0.2-3.2,0.2-4.8
			c0-3-0.5-3.5-3.6-3.4c-0.7,0-1.3,0.3-1.3,0.9c0,1.7-0.4,3.5-0.4,5.2C97,52.5,97,53.9,97,55.4z"/>
		<path fill="#FFFFFF" d="M82.4,57.3c0-4.6,0-9.1,0-13.7c0-1,0.3-1.4,1.3-1.3c1.5,0.1,3,0,4.5,0.2c2.4,0.2,3.9,1.6,4,3.9
			c0.1,2.5,0.1,5,0,7.6c-0.1,2.4-1.7,3.8-4.1,4c-0.6,0-1.2,0.1-1.9,0c-0.8-0.1-1.1,0.2-1.1,1c0,4,0,7.9,0,11.9
			c0,0.4-0.1,1.2-0.2,1.3c-0.6,0.2-1.4,0.1-2,0c-0.2,0-0.3-0.7-0.3-1C82.3,66.5,82.4,61.9,82.4,57.3z M85,55.3c0,0,0.5,0.1,0.7,0.1
			c0.6,0,1.2,0,1.8,0c1.1-0.1,1.9-0.7,2-1.9c0.1-2.2,0.1-4.4,0-6.6c0-0.9-0.6-1.6-1.6-1.8c-0.9-0.1-1.8,0-2.8,0
			C85,48.5,85,51.9,85,55.3z"/>
		<path fill="#FFFFFF" d="M60,108c-20.8-0.8-36.5-9.4-47.2-26.4c0,0,0-0.1-0.1-0.1c0-0.4-0.1-0.9-0.1-1.4c0.4,0.3,0.9,0.4,1.1,0.8
			c6.3,10.3,15.1,17.7,26.4,22.1c7.7,3,15.8,4.3,24.1,3.4c17.7-1.8,31.3-10.3,40.9-25.1c0.3-0.4,0.4-1.4,1.2-0.9
			c0.8,0.5,0,1.1-0.2,1.5c-8.6,13.6-20.8,21.9-36.8,25C66,107.6,62.8,107.7,60,108z"/>
		<path fill="#FFFFFF" d="M51.6,57.3c0-4.6,0-9.2,0-13.8c0-1,0.3-1.2,1.3-1.2c1.9,0,3.8,0,5.7,0c1.1,0,1,0.7,1,1.4
			c0,0.7,0.1,1.4-1,1.3c-1.1-0.1-2.3,0-3.4,0c-0.6,0-0.9,0.2-0.9,0.8c0,3,0,6.1,0,9.1c0,0.6,0.3,0.8,0.9,0.8c0.6,0,1.2,0,1.9,0
			c0.8-0.1,1.1,0.3,1,1c0,0.3,0,0.5,0,0.8c0,0.6-0.2,0.8-0.8,0.8c-0.7,0-1.4,0-2.1,0c-0.6,0-0.9,0.2-0.9,0.8c0,3.2,0,6.5,0,9.7
			c0,0.6,0.2,0.8,0.9,0.8c1.2,0,2.5,0,3.7,0c1,0,0.9,0.6,0.9,1.2c0,0.6,0.3,1.4-0.9,1.3c-2.1,0-4.2,0-6.2,0c-0.8,0-1-0.3-1-1
			C51.7,66.6,51.6,62,51.6,57.3z"/>
		<path fill="#FFFFFF" d="M101.4,7c-0.1-0.3-0.3-0.7-0.2-0.9c0.7-0.8,1.4-1.5,2.2-2.2c0.1-0.1,0.5-0.1,0.7,0
			c0.1,0.1,0.2,0.5,0.1,0.6c-0.8,0.8-1.6,1.6-2.4,2.4C101.9,7,101.8,6.9,101.4,7z"/>
		<path fill="#FFFFFF" d="M104.6,10.4c-0.5-0.3-1.3-0.6-1.3-0.8c0.1-0.8,0.9-0.4,1.4-0.5c0.2,0,0.4-0.1,0.5,0
			c0.4,0.2,0.8,0.4,1.1,0.6c-0.4,0.2-0.8,0.4-1.2,0.6c-0.1,0-0.3,0-0.4,0C104.7,10.3,104.6,10.4,104.6,10.4z"/>
		<path fill="#FFFFFF" d="M97.9,3.4c0.3-0.4,0.5-1.2,0.8-1.2c0.9,0,0.5,0.8,0.6,1.3c0,0.3,0.1,0.6,0,0.9c-0.1,0.3-0.4,0.5-0.6,0.7
			c-0.2-0.2-0.5-0.4-0.5-0.7c-0.1-0.3,0-0.6,0-0.9C98,3.5,98,3.5,97.9,3.4z"/>
	</g>
	<text transform="matrix(1.0155 0 0 1 30.666 32.5806)" fill="#FFFFFF" font-family="'BrandonGrotesque-Black'" font-size="6.9631">international</text>
	
		<text transform="matrix(1.0155 0 0 1 38.9268 90.6523)" fill="#FFFFFF" font-family="'BrandonGrotesque-Black'" font-size="8.9526">Helsinki</text>
</g>
</svg>
