<?xml version="1.0" encoding="iso-8859-1"?>
<!-- Generator: Adobe Illustrator 16.0.0, SVG Export Plug-In . SVG Version: 6.00 Build 0)  -->
<!DOCTYPE svg PUBLIC "-//W3C//DTD SVG 1.1//EN" "http://www.w3.org/Graphics/SVG/1.1/DTD/svg11.dtd">
<svg version="1.1" id="Capa_1" xmlns="http://www.w3.org/2000/svg" xmlns:xlink="http://www.w3.org/1999/xlink" x="0px" y="0px"
	 width="659.217px" height="659.217px" viewBox="0 0 659.217 659.217" style="enable-background:new 0 0 659.217 659.217;"
	 xml:space="preserve">
<g>
	<g id="music_-_song_note_playlist">
		<g>
			<path d="M47.147,188.355h423.692c12.993,0,23.539-10.545,23.539-23.539s-10.546-23.538-23.539-23.538H47.147
				c-12.993,0-23.539,10.498-23.539,23.491S34.154,188.355,47.147,188.355z M588.531,0v355.619
				c-51.596-36.814-136.382-35.213-212.976,10.404c-96.084,57.245-141.843,161.098-102.204,231.948s149.61,81.819,245.694,24.574
				c72.64-43.312,116.327-113.174,116.327-175.314h0.235V0H588.531z M493.577,579.188c-73.77,45.1-154.318,43.688-179.881-3.201
				s13.511-121.458,87.328-166.558c73.77-45.101,154.317-43.688,179.881,3.201C606.468,459.518,567.347,534.088,493.577,579.188z
				 M47.147,47.124h423.692c12.993,0,23.539-10.545,23.539-23.538S483.832,0.047,470.839,0.047H47.147
				c-12.993,0-23.539,10.498-23.539,23.491S34.154,47.124,47.147,47.124z M47.147,329.586h282.461
				c12.993,0,23.538-10.545,23.538-23.539s-10.545-23.539-23.538-23.539H47.147c-12.993,0-23.539,10.498-23.539,23.491
				C23.608,318.994,34.154,329.586,47.147,329.586z M188.377,423.739H47.147c-12.993,0-23.539,10.499-23.539,23.492
				s10.545,23.538,23.539,23.538h141.23c12.994,0,23.539-10.545,23.539-23.538S201.371,423.739,188.377,423.739z"/>
		</g>
	</g>
</g>
<g>
</g>
<g>
</g>
<g>
</g>
<g>
</g>
<g>
</g>
<g>
</g>
<g>
</g>
<g>
</g>
<g>
</g>
<g>
</g>
<g>
</g>
<g>
</g>
<g>
</g>
<g>
</g>
<g>
</g>
</svg>
